<!DOCTYPE svg PUBLIC "-//W3C//DTD SVG 1.1//EN" "http://www.w3.org/Graphics/SVG/1.1/DTD/svg11.dtd">
<!-- Uploaded to: SVG Repo, www.svgrepo.com, Transformed by: SVG Repo Mixer Tools -->
<svg fill="#ffffff" height="64px" width="64px" version="1.1" id="Layer_1" xmlns="http://www.w3.org/2000/svg" xmlns:xlink="http://www.w3.org/1999/xlink" viewBox="-102.4 -102.4 716.80 716.80" xml:space="preserve" stroke="#ffffff" stroke-width="15.36">
<g id="SVGRepo_bgCarrier" stroke-width="0"/>
<g id="SVGRepo_tracerCarrier" stroke-linecap="round" stroke-linejoin="round" stroke="#CCCCCC" stroke-width="3.072"/>
<g id="SVGRepo_iconCarrier"> <g> <g> <path d="M355.553,256h-50.322v-49.87c0-5.442-3.313-9.207-8.755-9.207h-68.923c-5.442,0-10.938,3.764-10.938,9.207V256h-48.139 c-5.442,0-10.938,3.764-10.938,9.207v68.923c0,5.442,5.495,10.486,10.938,10.486h48.139v48.591 c0,5.442,5.495,10.486,10.938,10.486h68.923c5.442,0,8.755-5.043,8.755-10.486v-48.591h50.322c5.442,0,8.755-5.043,8.755-10.486 v-68.923C364.308,259.764,360.995,256,355.553,256z M344.615,324.923h-48.139c-5.442,0-10.938,3.764-10.938,9.207V384h-49.231 v-49.87c0-5.442-3.313-9.207-8.755-9.207h-50.322v-49.231h50.322c5.442,0,8.755-5.043,8.755-10.486v-48.591h49.231v48.591 c0,5.442,5.495,10.486,10.938,10.486h48.139V324.923z"/> </g> </g> <g> <g> <path d="M463.793,108.308h-10.87V68.284c0-32.577-25.438-58.437-58.053-58.437H119.313c-32.615,0-60.236,25.861-60.236,58.437 v40.024h-8.688C23.207,108.308,0,129.736,0,156.851v295.49c0,27.115,23.207,49.812,50.389,49.812h413.404 c27.183,0,48.207-22.697,48.207-49.812v-295.49C512,129.736,490.976,108.308,463.793,108.308z M78.769,68.284 c0-21.721,18.793-38.745,40.543-38.745H394.87c21.75,0,39.452,17.664,39.452,39.385l0.029,39.385h-40.505V92.899 c0-19-14.341-33.822-33.303-33.822H153.639c-18.961,0-35.486,14.822-35.486,33.822v15.409H78.769V68.284z M375.245,93.538 l-0.029,14.769h-237.37V92.899c0-8.144,7.687-14.13,15.793-14.13h206.904C368.649,78.769,375.245,85.394,375.245,93.538z M492.308,452.341c0,16.259-12.188,30.12-28.514,30.12H50.389c-16.327,0-30.697-13.861-30.697-30.12v-295.49 c0-16.26,14.37-28.851,30.697-28.851h29.442h59.135h236.25h59.135h29.442c16.327,0,28.514,12.591,28.514,28.851V452.341z"/> </g> </g> </g>
</svg>