<?xml version="1.0" encoding="UTF-8"?>
<!DOCTYPE svg PUBLIC "-//W3C//DTD SVG 1.1//EN" "http://www.w3.org/Graphics/SVG/1.1/DTD/svg11.dtd">
<!-- Creator: CorelDRAW -->
<svg xmlns="http://www.w3.org/2000/svg" xml:space="preserve" width="6.82666in" height="6.82666in" style="shape-rendering:geometricPrecision; text-rendering:geometricPrecision; image-rendering:optimizeQuality; fill-rule:evenodd; clip-rule:evenodd"
viewBox="0 0 6.82666 6.82666"
 xmlns:xlink="http://www.w3.org/1999/xlink">
 <defs>
  <style type="text/css">
   <![CDATA[
    .fil2 {fill:none}
    .fil14 {fill:none;fill-rule:nonzero}
    .fil18 {fill:#293439}
    .fil8 {fill:#5C6BC0}
    .fil1 {fill:#5E35B1}
    .fil10 {fill:#79ACC4}
    .fil0 {fill:#9575CD}
    .fil6 {fill:#B3E5FC}
    .fil3 {fill:#DBC0B2}
    .fil5 {fill:#DFC4B6}
    .fil9 {fill:#E1F5FE}
    .fil19 {fill:#E4B7A0}
    .fil4 {fill:#ECCEBE}
    .fil7 {fill:#EDD0C2}
    .fil16 {fill:#00211C;fill-rule:nonzero}
    .fil12 {fill:#004D40;fill-rule:nonzero}
    .fil15 {fill:#00796B;fill-rule:nonzero}
    .fil11 {fill:#00897B;fill-rule:nonzero}
    .fil13 {fill:#424242;fill-rule:nonzero}
    .fil17 {fill:#616161;fill-rule:nonzero}
   ]]>
  </style>
   <clipPath id="id0">
    <path d="M3.41333 0c1.88513,0 3.41333,1.5282 3.41333,3.41333 0,1.88513 -1.5282,3.41333 -3.41333,3.41333 -1.88513,0 -3.41333,-1.5282 -3.41333,-3.41333 0,-1.88513 1.5282,-3.41333 3.41333,-3.41333z"/>
   </clipPath>
 </defs>
 <g id="Layer_x0020_1">
  <metadata id="CorelCorpID_0Corel-Layer"/>
  <path class="fil0" d="M3.41333 0c1.88513,0 3.41333,1.5282 3.41333,3.41333 0,1.88513 -1.5282,3.41333 -3.41333,3.41333 -1.88513,0 -3.41333,-1.5282 -3.41333,-3.41333 0,-1.88513 1.5282,-3.41333 3.41333,-3.41333z"/>
  <g style="clip-path:url(#id0)">
   <g id="_435566056">
    <g>
     <polygon id="_4312276881" class="fil1" points="4.12118,1.8011 7.90744,5.58737 7.92561,5.60998 7.94231,5.63424 7.9576,5.66007 7.97153,5.68733 7.98414,5.71592 7.99548,5.74574 8.0056,5.77665 8.01456,5.80856 8.02238,5.84136 8.02913,5.87492 8.03485,5.90915 8.03959,5.94391 8.04341,5.97911 8.04633,6.01464 8.04842,6.05038 8.04972,6.08621 8.05029,6.12203 8.05016,6.15773 8.04939,6.19319 8.04802,6.2283 8.04611,6.26294 8.0437,6.29702 8.04083,6.33041 8.03756,6.36301 8.03394,6.39469 4.24767,2.60842 4.2513,2.57674 4.25456,2.54414 4.25743,2.51075 4.25984,2.47667 4.26176,2.44203 4.26312,2.40692 4.26389,2.37146 4.26402,2.33576 4.26346,2.29994 4.26215,2.26411 4.26006,2.22837 4.25714,2.19284 4.25333,2.15764 4.24858,2.12287 4.24286,2.08865 4.23611,2.05509 4.22829,2.02229 4.21933,1.99038 4.20921,1.95946 4.19787,1.92965 4.18526,1.90106 4.17133,1.8738 4.15604,1.84797 4.13934,1.8237 "/>
     <polygon id="_431227304" class="fil1" points="4.28883,2.63139 8.07509,6.41766 8.0793,6.42302 8.08326,6.42886 8.08698,6.43518 8.09045,6.44195 8.09367,6.44916 8.09665,6.45679 8.09937,6.46481 8.10183,6.47323 8.10404,6.482 8.10598,6.49113 8.10765,6.50058 8.10906,6.51035 8.1102,6.52041 8.11106,6.53074 8.11165,6.54133 8.11196,6.55217 8.11198,6.56322 8.11172,6.57449 8.11117,6.58594 8.11033,6.59756 8.1092,6.60933 8.10777,6.62123 8.10604,6.63325 8.104,6.64537 8.10167,6.65756 8.09902,6.66982 8.09606,6.68213 4.3098,2.89585 4.31275,2.88355 4.3154,2.87129 4.31774,2.85909 4.31977,2.84698 4.3215,2.83496 4.32293,2.82306 4.32406,2.81128 4.3249,2.79967 4.32545,2.78822 4.32571,2.77695 4.32569,2.7659 4.32538,2.75506 4.3248,2.74447 4.32393,2.73413 4.3228,2.72407 4.32139,2.71431 4.31971,2.70486 4.31777,2.69573 4.31557,2.68696 4.3131,2.67854 4.31038,2.67052 4.30741,2.66289 4.30418,2.65568 4.30071,2.64891 4.29699,2.64259 4.29303,2.63674 "/>
     <polygon id="_431228144" class="fil1" points="4.3098,2.89585 8.09606,6.68213 8.09298,6.69377 8.08969,6.70517 8.0862,6.7163 8.08252,6.72716 8.07865,6.73773 8.07461,6.74801 8.0704,6.75799 8.06604,6.76765 8.06154,6.77698 8.05689,6.78598 8.05212,6.79463 8.04722,6.80293 8.04222,6.81085 8.03712,6.8184 8.03192,6.82556 8.02665,6.83231 8.02129,6.83866 8.01587,6.84459 8.0104,6.85008 8.00488,6.85514 7.99932,6.85974 7.99374,6.86388 7.98813,6.86754 7.98251,6.87073 7.97689,6.87341 7.97128,6.8756 7.96569,6.87726 7.96012,6.87841 7.95459,6.87901 7.9491,6.87907 7.94367,6.87856 7.93829,6.8775 4.15202,3.09122 4.1574,3.09229 4.16283,3.0928 4.16832,3.09274 4.17385,3.09213 4.17942,3.09099 4.18502,3.08933 4.19063,3.08714 4.19624,3.08446 4.20186,3.08127 4.20747,3.07761 4.21306,3.07347 4.21861,3.06887 4.22413,3.06381 4.22961,3.05831 4.23502,3.05239 4.24038,3.04604 4.24565,3.03928 4.25085,3.03213 4.25595,3.02458 4.26096,3.01665 4.26585,3.00836 4.27062,2.99971 4.27527,2.99071 4.27978,2.98137 4.28413,2.97172 4.28834,2.96174 4.29238,2.95146 4.29625,2.94089 4.29993,2.93003 4.30342,2.91889 4.30671,2.9075 "/>
     <polygon id="_431228456" class="fil1" points="4.15202,3.09122 7.93829,6.8775 7.93635,6.88372 7.93442,6.88983 7.9325,6.89581 7.93059,6.90167 7.92869,6.9074 7.92681,6.913 7.92494,6.91848 7.92309,6.92382 7.92125,6.92903 7.91943,6.9341 7.91763,6.93904 7.91585,6.94385 7.9141,6.94851 7.91236,6.95303 7.91065,6.95741 7.90897,6.96164 7.90731,6.96573 7.90568,6.96967 7.90408,6.97346 7.90251,6.9771 7.90097,6.98059 7.89946,6.98392 7.89799,6.98709 7.89656,6.99011 7.89515,6.99297 7.89379,6.99567 7.89246,6.9982 7.89118,7.00057 7.88994,7.00277 7.88873,7.0048 7.88757,7.00667 7.88646,7.00836 4.10019,3.22209 4.10131,3.22039 4.10246,3.21853 4.10367,3.2165 4.10491,3.2143 4.1062,3.21193 4.10752,3.20939 4.10889,3.2067 4.11029,3.20384 4.11172,3.20082 4.1132,3.19765 4.1147,3.19431 4.11624,3.19083 4.11781,3.18719 4.11941,3.1834 4.12104,3.17946 4.1227,3.17537 4.12439,3.17114 4.12609,3.16676 4.12783,3.16224 4.12959,3.15757 4.13137,3.15277 4.13317,3.14783 4.13498,3.14276 4.13682,3.13755 4.13867,3.1322 4.14054,3.12673 4.14243,3.12113 4.14432,3.11539 4.14623,3.10954 4.14815,3.10356 4.15008,3.09745 "/>
     <polygon id="_431227760" class="fil1" points="4.10019,3.22209 7.88646,7.00836 7.88199,7.01473 7.87702,7.02143 7.87156,7.02843 7.86563,7.03572 7.85924,7.04329 7.85241,7.05112 7.84514,7.0592 7.83745,7.06752 7.82937,7.07606 7.82089,7.0848 7.81204,7.09374 7.80283,7.10285 7.79328,7.11213 7.78339,7.12156 7.77318,7.13112 7.76267,7.14081 7.75186,7.1506 7.74078,7.16048 7.72944,7.17044 7.71785,7.18047 7.70602,7.19054 7.69398,7.20065 7.68172,7.21079 7.66928,7.22093 7.65665,7.23106 7.64387,7.24117 7.63093,7.25124 7.61785,7.26127 7.60466,7.27123 7.59135,7.28111 7.57795,7.2909 7.56447,7.30059 3.7782,3.51431 3.79169,3.50463 3.80508,3.49484 3.81839,3.48496 3.83159,3.475 3.84466,3.46497 3.8576,3.4549 3.87039,3.44479 3.88301,3.43465 3.89545,3.42452 3.90771,3.41438 3.91975,3.40427 3.93158,3.3942 3.94317,3.38417 3.95451,3.37421 3.96559,3.36433 3.9764,3.35454 3.98691,3.34485 3.99712,3.33529 4.00701,3.32586 4.01657,3.31658 4.02578,3.30746 4.03463,3.29853 4.0431,3.28978 4.05119,3.28125 4.05887,3.27293 4.06614,3.26485 4.07297,3.25702 4.07936,3.24944 4.08529,3.24215 4.09075,3.23515 4.09572,3.22846 "/>
     <polygon id="_431228504" class="fil1" points="3.88827,3.60681 7.67454,7.39308 7.68574,7.40481 7.69674,7.41679 7.70753,7.429 7.71812,7.44142 7.72852,7.45406 7.73872,7.46688 7.74872,7.47989 7.75852,7.49306 7.76813,7.5064 7.77755,7.51987 7.78677,7.53348 7.79581,7.5472 7.80465,7.56104 7.8133,7.57496 7.82177,7.58896 7.83004,7.60304 7.83814,7.61717 7.84604,7.63133 7.85377,7.64554 7.86131,7.65975 7.86867,7.67397 7.87584,7.68819 7.88284,7.70238 4.09657,3.91611 4.08957,3.90192 4.0824,3.8877 4.07504,3.87348 4.0675,3.85926 4.05978,3.84506 4.05187,3.83089 4.04378,3.81676 4.0355,3.80269 4.02704,3.78869 4.01838,3.77476 4.00954,3.76093 4.0005,3.74721 3.99128,3.7336 3.98187,3.72013 3.97226,3.70679 3.96245,3.69362 3.95245,3.68061 3.94225,3.66778 3.93185,3.65515 3.92126,3.64272 3.91047,3.63052 3.89947,3.61854 "/>
     <polygon id="_431228984" class="fil1" points="4.26325,3.95681 8.04952,7.74308 8.04569,7.73939 8.04145,7.73581 8.03681,7.73234 8.03174,7.72899 8.02622,7.72576 8.02024,7.72264 8.0138,7.71966 8.00685,7.7168 7.99941,7.71407 7.99143,7.71148 7.98293,7.70903 7.97387,7.70671 7.96424,7.70454 7.95402,7.70252 7.94321,7.70064 7.93178,7.69891 7.91972,7.69734 7.907,7.69593 7.89363,7.69467 7.87958,7.69358 4.09331,3.90731 4.10737,3.9084 4.12074,3.90965 4.13345,3.91107 4.14551,3.91264 4.15694,3.91437 4.16776,3.91624 4.17797,3.91827 4.1876,3.92044 4.19666,3.92276 4.20517,3.92521 4.21314,3.9278 4.22059,3.93053 4.22753,3.93339 4.23398,3.93637 4.23995,3.93948 4.24547,3.94272 4.25054,3.94607 4.25519,3.94954 4.25942,3.95312 "/>
     <polygon id="_431228696" class="fil1" points="4.29094,3.93106 8.07721,7.71733 8.08233,7.72286 8.08689,7.72857 8.0909,7.73447 8.09441,7.74054 8.09742,7.74679 8.09996,7.7532 8.10207,7.75977 8.10377,7.76649 8.10507,7.77336 8.10601,7.78037 8.10661,7.78752 8.10689,7.7948 8.10689,7.8022 8.10662,7.80972 4.32035,4.02345 4.32062,4.01593 4.32063,4.00852 4.32034,4.00124 4.31974,3.99409 4.3188,3.98709 4.3175,3.98022 4.31581,3.9735 4.3137,3.96693 4.31115,3.96052 4.30814,3.95427 4.30463,3.9482 4.30062,3.9423 4.29606,3.93659 "/>
     <polygon id="_431228576" class="fil1" points="4.32035,4.02345 8.10662,7.80972 8.10659,7.81021 8.10657,7.8107 8.10654,7.81119 8.10652,7.81168 8.10649,7.81217 8.10646,7.81265 8.10643,7.81314 8.10641,7.81362 4.32014,4.02735 4.32017,4.02687 4.32019,4.02638 4.32022,4.02589 4.32025,4.02541 4.32027,4.02492 4.3203,4.02443 4.32033,4.02394 "/>
     <polygon id="_431228888" class="fil1" points="4.8139,4.34537 8.60017,8.13164 8.61235,8.14568 8.62422,8.16149 8.63576,8.179 8.64699,8.19814 8.65793,8.21883 8.66859,8.24101 8.67897,8.2646 8.6891,8.28953 8.69898,8.31573 8.70862,8.34312 8.71804,8.37163 8.72726,8.40119 8.73627,8.43173 8.74509,8.46318 8.75374,8.49546 8.76223,8.5285 8.77056,8.56223 8.77876,8.59657 8.78683,8.63146 8.79479,8.66682 8.80264,8.70258 8.8104,8.73867 8.81808,8.77502 8.8257,8.81154 8.83326,8.84818 8.84078,8.88485 8.84826,8.92149 8.85573,8.95803 8.86319,8.99439 8.87066,9.03049 8.87814,9.06627 5.09187,5.28 5.08439,5.24422 5.07693,5.20811 5.06946,5.17176 5.062,5.13522 5.05451,5.09858 5.04699,5.06191 5.03943,5.02527 5.03181,4.98874 5.02413,4.9524 5.01637,4.91631 5.00852,4.88055 5.00056,4.84519 4.99249,4.8103 4.9843,4.77596 4.97596,4.74223 4.96747,4.70919 4.95882,4.67691 4.95,4.64546 4.94099,4.61492 4.93178,4.58536 4.92235,4.55685 4.91271,4.52946 4.90283,4.50326 4.8927,4.47833 4.88232,4.45474 4.87166,4.43256 4.86072,4.41187 4.84949,4.39273 4.83795,4.37522 4.82609,4.35941 "/>
     <polygon id="_431229200" class="fil1" points="3.04838,3.51427 6.83465,7.30054 6.82117,7.29086 6.80778,7.28107 6.79447,7.27119 6.78128,7.26123 6.7682,7.2512 6.75527,7.24113 6.74248,7.23102 6.72986,7.22089 6.71741,7.21075 6.70516,7.20062 6.69312,7.19051 6.6813,7.18044 6.6697,7.17041 6.65836,7.16046 6.64728,7.15057 6.63648,7.14078 6.62597,7.1311 6.61576,7.12154 6.60588,7.11211 6.59632,7.10284 2.81005,3.31657 2.81961,3.32584 2.8295,3.33527 2.8397,3.34483 2.85022,3.35451 2.86102,3.3643 2.87209,3.37419 2.88344,3.38414 2.89503,3.39417 2.90685,3.40424 2.91889,3.41435 2.93115,3.42448 2.94359,3.43462 2.95621,3.44475 2.969,3.45486 2.98193,3.46493 2.99501,3.47496 3.0082,3.48492 3.02151,3.4948 3.03491,3.50459 "/>
     <polygon id="_431228912" class="fil1" points="4.40785,5.28 8.19412,9.06627 8.13661,9.06627 4.35034,5.28 "/>
     <polygon id="_431229224" class="fil1" points="4.35034,5.28 8.13661,9.06627 7.6709,9.06627 3.88463,5.28 "/>
     <polygon id="_431229080" class="fil1" points="3.88463,5.28 7.6709,9.06627 7.59111,9.06627 3.80484,5.28 "/>
     <polygon id="_431229152" class="fil1" points="3.80484,5.28 7.59111,9.06627 7.40183,9.06627 3.61556,5.28 "/>
     <polygon id="_431228744" class="fil1" points="3.61556,5.28 7.40183,9.06627 7.19961,9.06627 3.41335,5.28 "/>
     <polygon id="_431229296" class="fil1" points="3.41335,5.28 7.19961,9.06627 6.99586,9.06627 3.20959,5.28 "/>
     <polygon id="_431229920" class="fil1" points="3.20959,5.28 6.99586,9.06627 6.93514,9.06627 3.14887,5.28 "/>
     <polygon id="_431229464" class="fil1" points="3.14887,5.28 6.93514,9.06627 6.72679,9.06627 2.94052,5.28 "/>
     <polygon id="_431229488" class="fil1" points="2.94052,5.28 6.72679,9.06627 6.26259,9.06627 2.47632,5.28 "/>
     <polygon id="_431229944" class="fil1" points="2.47632,5.28 6.26259,9.06627 6.20511,9.06627 2.41884,5.28 "/>
     <polygon id="_431229728" class="fil1" points="2.41884,5.28 6.20511,9.06627 5.52106,9.06627 1.73479,5.28 "/>
     <polygon id="_431229896" class="fil1" points="2.67437,3.09043 6.46064,6.8767 6.45522,6.8781 6.44972,6.87891 6.44417,6.87913 6.43856,6.87879 6.43292,6.87788 6.42724,6.87642 6.42154,6.87443 6.41583,6.87191 6.41012,6.86887 6.40441,6.86533 6.39872,6.86129 6.39306,6.85677 6.38743,6.85178 2.60116,3.06551 2.60679,3.0705 2.61245,3.07502 2.61814,3.07906 2.62385,3.0826 2.62956,3.08563 2.63527,3.08815 2.64097,3.09015 2.64665,3.09161 2.6523,3.09252 2.6579,3.09286 2.66345,3.09264 2.66895,3.09183 "/>
     <polygon id="_431229776" class="fil1" points="5.09187,5.28 8.87814,9.06627 8.19412,9.06627 4.40785,5.28 "/>
    </g>
    <path id="_435565912" class="fil1" d="M2.73471 1.82392c0.188079,-0.242496 0.811012,-0.415957 1.21439,-0.125 0.326898,0.0698386 0.338937,0.576768 0.298571,0.9095 0.00565748,0.000456693 0.0112244,0.00182677 0.0166535,0.00415748 0.0583268,0.0250039 0.0786772,0.151854 0.0454685,0.283276 -0.0317126,0.125535 -0.100815,0.209839 -0.157772,0.19537 -0.0207244,0.0670433 -0.040189,0.113728 -0.0518307,0.130862 -0.0449606,0.0662205 -0.177831,0.189563 -0.321988,0.292228 0.140528,0.0936575 0.244669,0.250547 0.31837,0.401795 0.0688976,0.0329291 0.131138,0.063752 0.187425,0.0925827 -0.00205118,-0.0515157 -0.0371378,-0.0906299 -0.190685,-0.101386 -0.00133071,-9.05512e-005 -0.0174606,-0.0331339 -0.0194173,-0.037311 0.213878,0.0111535 0.250669,0.0725906 0.246453,0.153453 -6.69291e-005,0.00130709 -0.000137795,0.00261024 -0.000212598,0.00390157 0.303067,0.157776 0.421406,0.252882 0.481224,0.305827 0.135567,0.119961 0.210559,0.567126 0.290512,0.946823l-0.684024 0 -0.0575118 0 -0.465709 0 -0.0797913 0 -0.18928 0 -0.202213 0 -0.203752 0 -0.0607205 0 -0.20835 0 -0.464201 0 -0.0574803 0 -0.684055 0c0.0799606,-0.379697 0.154945,-0.826862 0.29052,-0.946823 0.058252,-0.0515433 0.175524,-0.145 0.463531,-0.296705 -0.000437008,-0.00435433 -0.000779528,-0.00869685 -0.00100394,-0.0130236 -0.00422047,-0.0808622 0.0325748,-0.142299 0.246453,-0.153453 0.0702047,-0.1315 0.170909,-0.263925 0.314094,-0.355724 -0.144142,-0.102657 -0.276988,-0.225972 -0.321945,-0.292185 -0.011685,-0.0172008 -0.031248,-0.064189 -0.052063,-0.131654 -0.0574685,0.0181299 -0.128406,-0.0668976 -0.160657,-0.194579 -0.0332362,-0.131421 -0.0128543,-0.258272 0.0454764,-0.283276 0.00980709,-0.0042126 0.020063,-0.00527953 0.0304961,-0.00351181 -0.000393701,-0.00783071 -0.00073622,-0.015685 -0.00102756,-0.023563 -0.0270276,-0.269276 -0.0159764,-0.552685 0.146051,-0.761583z"/>
   </g>
  </g>
  <path class="fil2" d="M3.41333 0c1.88513,0 3.41333,1.5282 3.41333,3.41333 0,1.88513 -1.5282,3.41333 -3.41333,3.41333 -1.88513,0 -3.41333,-1.5282 -3.41333,-3.41333 0,-1.88513 1.5282,-3.41333 3.41333,-3.41333z"/>
  <path class="fil3" d="M2.55919 2.61258c0.0583031,-0.0250551 0.13252,0.0611929 0.165728,0.192654 0.0332087,0.131421 0.0128583,0.258264 -0.0454764,0.283315 -0.0583031,0.0250157 -0.13252,-0.0612283 -0.165728,-0.192693 -0.0332362,-0.131421 -0.0128543,-0.258272 0.0454764,-0.283276z"/>
  <path class="fil3" d="M4.26433 2.61258c-0.0583346,-0.0250551 -0.132551,0.0612323 -0.165756,0.192654 -0.0332087,0.131421 -0.0128583,0.258264 0.0454685,0.283276 0.0583307,0.0250551 0.132547,-0.061189 0.165756,-0.192654 0.0332087,-0.131421 0.0128583,-0.258272 -0.0454685,-0.283276z"/>
  <path class="fil4" d="M3.76921 3.1226l0 0.812469c-0.195744,0.23974 -0.516051,0.231437 -0.711768,0l0 -0.812469c0,-0.438717 0.711768,-0.438717 0.711768,0z"/>
  <path class="fil5" d="M3.76921 3.1226l0 0.543961c-0.134677,0.0981732 -0.264476,0.153165 -0.355882,0.153165 -0.0914055,0 -0.221232,-0.0549921 -0.355886,-0.153165l0 -0.543961c0,-0.438717 0.711768,-0.438717 0.711768,0z"/>
  <path class="fil6" d="M3.07774 3.75667c-0.741902,0.325244 -0.964461,0.498673 -1.05243,0.576508 -0.135575,0.119961 -0.210559,0.567126 -0.29052,0.946823l1.67856 0 1.67853 0c-0.0799528,-0.379697 -0.154945,-0.826862 -0.290512,-0.946823 -0.0879449,-0.0778346 -0.302362,-0.246799 -1.04429,-0.572043l-0.679339 -0.00446457z"/>
  <path class="fil7" d="M2.97785 3.70133l-0.0373268 1.57867 0.944106 0 -0.0373504 -1.57867c-0.289791,0 -0.579614,0 -0.869429,0z"/>
  <path class="fil8" d="M2.84724 4.14772c0.18672,0.138835 0.703831,0.229799 1.16828,0.0335 -0.320953,0.424134 -0.210677,1.09878 -0.210677,1.09878l-0.655965 0c0,0 -0.0670039,-0.591252 -0.301634,-1.13228z"/>
  <path class="fil9" d="M3.05312 3.51126l0 0.419445 0.156476 1.3493 -0.269071 0 -0.296024 -0.600976 0.282563 -0.188358 -0.345319 -0.161457c0,0 0.0724724,-0.56635 0.471374,-0.817949z"/>
  <path class="fil9" d="M3.77357 3.51126l2.3622e-005 0.419445 -0.158039 1.3493 0.269071 0 0.296 -0.600976 -0.282539 -0.188358 0.345319 -0.161457c0,0 -0.128787,-0.595295 -0.469835,-0.817949z"/>
  <path class="fil10" d="M2.41884 5.28l0.0574803 0c-0.00256693,-0.255626 -0.00256693,-0.439858 -0.00256693,-0.439858 0,0 -0.0254646,0.191469 -0.0549134,0.439858z"/>
  <path class="fil10" d="M4.40785 5.28l-0.0575118 0c0.00256693,-0.255626 0.00256693,-0.439858 0.00256693,-0.439858 0,0 0.0254646,0.191469 0.0549449,0.439858z"/>
  <path class="fil11" d="M2.82001 4.70776l0.000326772 0.000751969c0.00181102,0.00420472 0.00360236,0.00843307 0.0052126,0.012622l0.00246457 0.00645669c0.00724803,0.0189961 0.0144882,0.0380039 0.0204685,0.0574449 0.0110472,0.0359252 0.0198504,0.0776811 0.0110551,0.114988 -0.0124409,0.0527795 -0.0579843,0.0815354 -0.105929,0.0986024l-0.00946457 -0.0307913c0.0379409,-0.0143858 0.0709724,-0.0387283 0.0813937,-0.0805866 0.00761417,-0.0305748 0.00138189,-0.0632559 -0.00770472,-0.0928031 -0.00576772,-0.018752 -0.012748,-0.0370906 -0.0197441,-0.0554173l-0.00246457 -0.00645669c-0.00154331,-0.00403937 -0.00325984,-0.00812205 -0.00500394,-0.012185l-0.000122047 -0.000279528 0.0295118 -0.0123465z"/>
  <path class="fil11" d="M2.24822 4.72297l-0.000220472 0.000519685c-0.00174409,0.00408661 -0.00345669,0.0082126 -0.0048622,0.012185l-0.00200394 0.00566535 4.72441e-005 0.000114173c-0.0152874,0.0434488 -0.0321378,0.0963661 -0.0281496,0.141815 0.00451181,0.0513543 0.038374,0.0789409 0.0842402,0.0910039l-0.00575984 0.0316811c-0.0631614,-0.0152323 -0.104248,-0.0505827 -0.110327,-0.119776 -0.0043622,-0.0496614 0.0116181,-0.103484 0.0280472,-0.150717l0.00374803 -0.0104055c0.00142126,-0.00393701 0.00306299,-0.00795669 0.00474016,-0.0119567l8.26772e-005 -0.000204724 0.0304173 0.0100748z"/>
  <path class="fil12" d="M2.20306 4.70801c0.013185,-0.0321339 0.0512598,-0.123205 0.0898504,-0.215504 0.0289961,-0.0693543 0.0582756,-0.139378 0.0770354,-0.184437l-4.72441e-005 -0.000114173c0.0172638,-0.0414449 0.0410433,-0.073311 0.0679449,-0.0945118 0.0247165,-0.0194764 0.0520866,-0.0300079 0.0798228,-0.0309291 0.0283976,-0.000944882 0.0564331,0.00803543 0.0817087,0.0276102 0.0239803,0.0185709 0.0453583,0.0468425 0.0617283,0.0853425 0.0190118,0.0447126 0.0507087,0.118957 0.0821654,0.192646 0.0383425,0.089815 0.0763268,0.178799 0.0907992,0.21302l-0.0143268 0.00599606 0.000271654 0.000633858 -0.0295118 0.0123465 -0.000271654 -0.000633858 -0.0144331 0.00603543c-0.0137598,-0.0325551 -0.0520512,-0.122248 -0.0907047,-0.212791 -0.0314567,-0.073689 -0.0631535,-0.147933 -0.0821654,-0.192646 -0.0118701,-0.0279213 -0.0264449,-0.0477008 -0.0422362,-0.0599331 -0.0131378,-0.0101732 -0.0270906,-0.0148622 -0.0407402,-0.0144055 -0.014315,0.000472441 -0.0290709,0.00640551 -0.0430512,0.0174213 -0.0185,0.0145827 -0.0354094,0.0378346 -0.0484685,0.0691811l-8.26772e-005 -3.54331e-005c-0.0193819,0.0465512 -0.0484016,0.115961 -0.0771339,0.184681 -0.0375039,0.0897087 -0.0745315,0.178272 -0.0880433,0.210858l-0.0149252 -0.0049252 -2.3622e-005 5.51181e-005 -0.0304173 -0.0100748 7.87402e-006 -1.5748e-005 -0.0119252 -0.00393307 -0.00282677 -0.000937008z"/>
  <polygon class="fil13" points="2.20306,4.70802 2.20306,4.70801 2.20588,4.70895 "/>
  <path class="fil12" d="M2.7179 5.04342c-0.015874,0.0066378 -0.0329449,0.00621654 -0.0477047,0.000165354 -0.0147559,-0.00605512 -0.0272087,-0.0177362 -0.0338504,-0.0336102 -0.00664173,-0.015874 -0.00622047,-0.0329449 -0.000165354,-0.0477047 0.00605118,-0.0147559 0.0177323,-0.0272087 0.0336063,-0.0338504 0.015874,-0.00664173 0.0329449,-0.00622047 0.0477047,-0.000165354 0.0147598,0.00605118 0.0272126,0.0177323 0.0338504,0.0336063 0.00664173,0.015878 0.00622047,0.0329449 0.000169291,0.0477047 -0.00605512,0.0147598 -0.0177362,0.0272126 -0.0336102,0.0338543z"/>
  <path class="fil12" d="M2.36819 5.05047c-0.015874,0.00664173 -0.0329449,0.00622047 -0.0477008,0.000169291 -0.0147598,-0.00605118 -0.0272087,-0.0177362 -0.0338504,-0.0336102 -0.00664173,-0.015878 -0.00622047,-0.0329449 -0.000169291,-0.0477047 0.00605118,-0.0147559 0.0177362,-0.0272087 0.0336102,-0.0338504 0.015874,-0.00664173 0.0329409,-0.00621654 0.0477008,-0.000165354 0.0147598,0.00605118 0.0272126,0.0177323 0.0338543,0.0336102 0.00664173,0.015874 0.00621654,0.0329409 0.000165354,0.0477008 -0.00605512,0.0147598 -0.0177362,0.0272087 -0.0336102,0.0338504z"/>
  <line class="fil14" x1="4.42098" y1="4.52856" x2="4.42098" y2= "4.52856" />
  <line class="fil14" x1="4.48422" y1="4.52761" x2="4.48422" y2= "4.52762" />
  <path class="fil12" d="M4.35916 4.65596l-3.93701e-006 3.93701e-006c-0.0350512,0.000425197 -0.0669291,-0.0133583 -0.090122,-0.0359921 -0.0232205,-0.0226575 -0.0377953,-0.0541417 -0.0382244,-0.0890748l0 -3.93701e-006c-0.000429134,-0.0350512 0.0133543,-0.0669252 0.0359882,-0.0901181 0.0226535,-0.0232165 0.0541417,-0.0377953 0.0890748,-0.0382244l7.87402e-006 0c0.0350472,-0.000429134 0.0669213,0.0133543 0.0901142,0.0359882 0.0232205,0.0226535 0.0377953,0.0541417 0.0382244,0.0890748l0 7.87402e-006c0.000429134,0.0350472 -0.0133543,0.0669213 -0.0359843,0.0901142 -0.0226575,0.0232205 -0.0541417,0.0377953 -0.0890748,0.0382244z"/>
  <path class="fil15" d="M4.35839 4.59694l0 0c-0.0187244,0.000228346 -0.0357559,-0.00713386 -0.0481457,-0.0192283 -0.0124016,-0.0121024 -0.020189,-0.0289213 -0.0204173,-0.0475827l-3.93701e-006 -3.93701e-006c-0.000228346,-0.0187244 0.0071378,-0.035748 0.0192283,-0.0481417 0.0121024,-0.0124016 0.0289213,-0.020189 0.0475827,-0.0204213l3.93701e-006 3.93701e-006c0.0187244,-0.000232283 0.035752,0.00713386 0.0481417,0.0192244 0.0124016,0.0121024 0.0201929,0.0289213 0.0204213,0.0475827l0 3.93701e-006c0.000228346,0.0187244 -0.0071378,0.035752 -0.0192244,0.0481417 -0.0121063,0.0124016 -0.0289252,0.020189 -0.0475866,0.0204213z"/>
  <path class="fil16" d="M4.35824 4.58723l3.93701e-006 0c0.00787795,-9.84252e-005 0.0153504,-0.00174803 0.022122,-0.00465354 0.00701969,-0.00301181 0.0133465,-0.00740551 0.0186457,-0.0128346 0.00528346,-0.00541732 0.00951575,-0.0118622 0.0123661,-0.0189921 0.00273622,-0.00685433 0.00420079,-0.0143661 0.0041063,-0.0222244l0 -3.93701e-006c-9.84252e-005,-0.00788189 -0.00174803,-0.0153504 -0.00465354,-0.022122 -0.00301181,-0.00702362 -0.00740551,-0.0133504 -0.0128346,-0.0186496 -0.00541732,-0.00528346 -0.0118622,-0.00951575 -0.0189921,-0.0123622 -0.00685433,-0.00274016 -0.0143661,-0.00420472 -0.0222244,-0.00411024l-3.93701e-006 0c-0.00788189,9.84252e-005 -0.0153504,0.00174803 -0.022122,0.00465354 -0.00702362,0.00301181 -0.0133504,0.00740551 -0.0186496,0.0128346 -0.00528346,0.00541732 -0.00951575,0.0118622 -0.0123622,0.0189921 -0.00274016,0.00685433 -0.00420472,0.0143661 -0.00411024,0.0222244l0 3.93701e-006c9.84252e-005,0.00788189 0.00174803,0.0153543 0.00465354,0.022122 0.00301181,0.00702362 0.00740551,0.0133504 0.0128346,0.0186496 0.00541732,0.00528346 0.0118622,0.00951575 0.0189921,0.0123622 0.00685827,0.00274016 0.0143661,0.00420472 0.0222283,0.00411024zm0.000287402 0.0194252c-0.0105039,0.000125984 -0.0205551,-0.00183858 -0.0297362,-0.00550394 -0.00952756,-0.00380315 -0.018122,-0.00944094 -0.0253307,-0.0164764 -0.00720472,-0.0070315 -0.0130591,-0.0154921 -0.0171142,-0.024937 -0.0038937,-0.00908268 -0.0061063,-0.0190354 -0.00623622,-0.0294567l-3.93701e-006 -7.87402e-006c-0.000125984,-0.0105039 0.00183465,-0.0205512 0.00550394,-0.0297362 0.00380315,-0.00952756 0.00944488,-0.018122 0.0164764,-0.0253268 0.0070315,-0.00720866 0.0154921,-0.013063 0.024937,-0.0171181 0.00908268,-0.00389764 0.0190354,-0.00611024 0.0294606,-0.00623622l7.87402e-006 0c0.0105039,-0.000129921 0.0205512,0.00183465 0.0297323,0.0055 0.00952756,0.00380709 0.018122,0.00944488 0.0253307,0.0164764 0.00720472,0.0070315 0.0130591,0.0154921 0.0171142,0.024937 0.00389764,0.00908268 0.00611024,0.0190354 0.00624016,0.0294606l-3.93701e-006 7.87402e-006c0.000129921,0.0105039 -0.00183071,0.0205512 -0.0055,0.0297323 -0.00380709,0.00952756 -0.00944094,0.018122 -0.0164764,0.0253307 -0.0070315,0.00720472 -0.0154882,0.0130591 -0.024937,0.0171142 -0.00908268,0.00389764 -0.0190354,0.00611024 -0.0294606,0.00624016l-3.93701e-006 0zm-0.00175197 -0.135378l0 0m-0.000287402 -0.0194213l3.93701e-006 0m0.0589921 0.0766654l0 0m0.0194252 -0.000287402l-3.93701e-006 3.93701e-006"/>
  <path class="fil17" d="M2.71487 3.90731c-0.166126,0.0116378 -0.193587,0.0564685 -0.190571,0.114287 0.00088189,0.0169449 0.00416142,0.0359134 0.00754331,0.0555 0.0059685,0.034563 0.0122598,0.0709843 0.00781496,0.108181l-0.0367441 -0.000956693c0.00463386,-0.0330866 -0.00139764,-0.068 -0.00711024,-0.101075 -0.00352756,-0.020437 -0.00694882,-0.0402323 -0.0079685,-0.0597953 -0.00422047,-0.0808622 0.0325748,-0.142299 0.246453,-0.153453 -0.00195669,0.00417717 -0.0180866,0.0372205 -0.0194173,0.037311z"/>
  <path class="fil17" d="M4.09331 3.90731c0.166126,0.0116378 0.193587,0.0564685 0.190571,0.114287 -0.00420079,0.0804016 -0.0125709,0.113425 -0.00295669,0.203957 0.00741339,0.0697835 0.0215551,0.146138 0.0447992,0.188531l0.0367441 -0.000956693c-0.0242835,-0.0427992 -0.0423819,-0.125626 -0.0487756,-0.195484 -0.00708661,-0.0774606 0.00294882,-0.12313 0.00665354,-0.194193 0.00421654,-0.0808622 -0.0325748,-0.142299 -0.246453,-0.153453 0.00195669,0.00417717 0.0180866,0.0372205 0.0194173,0.037311z"/>
  <path class="fil5" d="M3.76921 3.1226l0 0.543961c-0.134677,0.0981732 -0.264476,0.153165 -0.355882,0.153165 -0.0914055,0 -0.221232,-0.0549921 -0.355886,-0.153165l0 -0.543961c0,-0.438717 0.711768,-0.438717 0.711768,0z"/>
  <path class="fil4" d="M3.41333 1.66392c-1.19448,0 -0.764921,1.44329 -0.686894,1.55817 0.0860315,0.126705 0.493906,0.46252 0.686894,0.46252 0.192984,0 0.600839,-0.335815 0.686862,-0.46252 0.0780591,-0.114878 0.507614,-1.55817 -0.686862,-1.55817z"/>
  <path class="fil18" d="M2.86735 2.14693c-0.0692835,0.378531 -0.242799,0.343201 -0.229039,0.787402 -0.0557362,-0.346205 -0.138984,-0.806929 0.0964016,-1.11041 0.188079,-0.242496 0.811012,-0.415957 1.21439,-0.125 0.445528,0.095185 0.306209,1.00226 0.246465,1.17371 -0.0417008,-0.277701 -0.135118,-0.393378 -0.253055,-0.719882 -0.16,0.114736 -0.870063,0.140331 -1.07516,-0.00582677z"/>
  <path class="fil19" d="M3.05157 3.17476c0.240236,0.0859764 0.519091,0.0720354 0.723524,0 -0.0667087,0.307358 -0.595957,0.314823 -0.723524,0z"/>
 </g>
</svg>
